<svg xmlns="http://www.w3.org/2000/svg" width="78" height="51" viewBox="0 0 78 51" fill="none"><mask id="path-1-inside-1_147_309" fill="white"><path d="M12.0194 23.0729C12.0525 24.8671 12.1185 26.6613 12.1158 28.4556C12.1158 35.5023 12.0745 42.5463 12.102 49.5931C12.1075 50.6392 11.8515 51.016 10.72 50.9889C7.58165 50.913 4.44053 50.9401 1.30215 50.978C0.443227 50.9889 0 50.8967 0 49.8451C0.0357885 33.5942 0.0302826 17.3407 0.0110118 1.0898C0.0110118 0.306526 0.206472 0.0192351 1.05438 0.0246557C6.23546 0.0598894 11.4165 0.0788614 16.5948 0.0111043C17.696 -0.00244716 17.7456 0.610077 17.8474 1.31746C18.7091 7.21233 19.5625 13.1099 20.4242 19.0075C20.5316 19.7447 20.6775 20.4765 21.0601 21.2028C21.6851 16.3189 22.31 11.4322 22.9349 6.54831C23.1689 4.71345 23.4139 2.8813 23.6342 1.04372C23.7223 0.314656 24.0168 0.0138146 24.84 0.0219454C30.0733 0.0625997 35.3067 0.0625997 40.5373 0.0219454C41.4183 0.0165248 41.5614 0.366152 41.5559 1.11419C41.5284 5.07392 41.5202 9.03365 41.5614 12.9934C41.5697 13.8715 41.2256 14.1209 40.4024 14.2347C38.2744 14.5355 36.2069 15.0532 34.379 16.2566C32.0362 17.7987 31.9839 19.8097 34.2771 21.444C36.0115 22.6799 38.0349 23.1732 40.0831 23.6231C40.5759 23.7315 41.611 23.5012 41.4073 24.485C41.1953 25.5013 41.8918 26.9595 40.4768 27.4609C38.5414 28.1466 37.9771 29.3445 38.2249 31.258C38.4341 32.8842 38.4644 34.5456 38.4065 36.1853C38.357 37.5702 38.9819 38.3644 40.2565 38.5947C41.4073 38.8007 41.5835 39.4024 41.5614 40.4133C41.5009 43.4976 41.5036 46.5847 41.5614 49.669C41.5807 50.6474 41.344 51.0105 40.2731 50.9862C37.1347 50.9157 33.9936 50.9103 30.8552 50.9862C29.732 51.0133 29.4759 50.6609 29.4787 49.6039C29.509 40.4486 29.4787 31.2959 29.4677 22.1406C29.4677 21.8018 29.4677 21.4603 29.2695 21.0971C28.8455 24.1299 28.4078 27.1628 27.9976 30.1983C27.1249 36.665 26.2495 43.1317 25.4153 49.6012C25.2777 50.6636 24.8702 51.0593 23.7223 50.9916C21.8447 50.8777 19.9507 50.8696 18.0759 50.9916C16.8949 51.0702 16.5425 50.5986 16.3966 49.5795C15.4606 42.9664 14.4916 36.3587 13.5391 29.7484C13.2087 27.4636 12.9004 25.1761 12.5838 22.8913C12.6306 22.3032 12.4571 21.7964 11.9203 21.1378C11.9616 21.959 11.9891 22.5146 12.0167 23.0702L12.0194 23.0729Z"></path><path d="M71.2327 23.4177C71.4144 23.5803 71.5053 23.7321 71.6292 23.7674C76.3698 25.071 77.8701 28.5673 77.9169 32.9335C77.9555 36.4732 78.1977 40.0236 77.6196 43.5551C76.8736 48.1003 74.5804 50.2848 69.9609 50.6507C62.4893 51.2442 55.004 50.8458 47.527 50.9786C46.6461 50.9949 46.4974 50.6263 46.5057 49.881C46.5359 46.6422 46.5332 43.4007 46.5057 40.1619C46.5001 39.4491 46.6461 39.0805 47.4692 38.907C49.2036 38.5438 50.4892 37.8066 50.3956 35.5706C50.3323 34.0908 50.5608 32.5975 50.6791 31.1095C50.8443 29.0253 50.514 28.2556 48.4658 27.6268C46.5772 27.0468 47.5931 25.7296 47.4306 24.7268C47.2545 23.64 48.2097 23.9056 48.8126 23.7755C51.0068 23.3039 53.2311 22.9001 55.0784 21.5178C57.2037 19.9269 57.1816 18.0243 54.9903 16.4984C52.9311 15.0646 50.5525 14.4548 48.0914 14.2C46.8938 14.0781 46.4396 13.7312 46.4754 12.4356C46.5827 8.68461 46.5222 4.92816 46.5057 1.17441C46.5029 0.496841 46.5057 -0.00185161 47.4582 0.022541C53.4706 0.166186 59.4941 -0.259329 65.4983 0.293569C73.0002 0.981982 76.3478 4.37526 76.9204 11.8313C77.0415 13.4168 77.0332 15.0213 76.9314 16.6095C76.7359 19.6748 75.4971 22.0572 72.2266 22.9624C71.9017 23.0518 71.6072 23.2416 71.2272 23.415L71.2327 23.4177ZM60.3145 35.0963C60.3145 36.7415 60.3145 38.3866 60.3145 40.0345C60.3145 42.1241 60.8651 42.4358 62.8638 41.5604C63.9291 41.0942 64.0585 40.17 64.0778 39.2512C64.1301 36.5274 64.1549 33.8008 64.0943 31.077C64.0448 28.8654 63.6786 28.5808 61.479 28.2312C60.5678 28.0875 60.2732 28.3179 60.3007 29.234C60.3586 31.1854 60.3173 33.1422 60.3173 35.0963H60.3145ZM64.1494 14.7936C64.1494 14.1567 64.1549 13.7474 64.1494 13.3382C64.1356 12.3137 64.1494 11.2865 63.7392 10.3108C63.1969 9.02611 61.9663 9.0776 60.9339 9.13452C59.7997 9.19686 60.3558 10.2457 60.342 10.8366C60.2787 13.4493 60.3063 16.0674 60.3255 18.6829C60.3255 19.0596 60.1301 19.5258 60.5871 19.7968C61.5836 20.3849 63.5905 19.5285 63.8851 18.3956C64.2127 17.1353 64.0751 15.8452 64.1521 14.7936H64.1494Z"></path><path d="M39.9369 31.5135C39.8488 30.6272 40.0938 30.0391 41.0491 29.7816C42.0787 29.5024 42.5137 28.8194 42.4393 27.7163C42.3512 26.3856 42.3815 25.0413 42.4338 23.7078C42.4641 22.9354 42.2136 22.6291 41.4015 22.5478C39.5625 22.3608 37.8474 21.7158 36.2534 20.8105C34.464 19.7942 34.3759 18.168 36.2204 17.2655C41.6134 14.6257 47.1276 14.3465 52.6446 16.9538C53.4897 17.3522 54.3844 17.9322 54.2936 19.0028C54.2055 20.0381 53.4704 20.6886 52.4876 21.1412C50.9157 21.8675 49.319 22.4774 47.5736 22.5831C46.7918 22.6319 46.4669 22.9002 46.5082 23.7105C46.5688 24.941 46.6238 26.1877 46.4972 27.4101C46.3706 28.6514 46.9349 29.4021 48.0031 29.7192C49.1951 30.0716 49.3603 30.8034 49.2419 31.8387C49.1208 32.9093 48.9859 33.9988 49.0492 35.0666C49.14 36.5844 48.5041 37.411 47.001 37.6062C45.3437 37.823 43.6892 37.8745 42.0264 37.5574C40.6664 37.2972 40.0387 36.5898 40.1516 35.2049C40.2012 34.5978 39.9975 32.1233 39.9396 31.5135H39.9369Z"></path></mask><path d="M12.0194 23.0729C12.0525 24.8671 12.1185 26.6613 12.1158 28.4556C12.1158 35.5023 12.0745 42.5463 12.102 49.5931C12.1075 50.6392 11.8515 51.016 10.72 50.9889C7.58165 50.913 4.44053 50.9401 1.30215 50.978C0.443227 50.9889 0 50.8967 0 49.8451C0.0357885 33.5942 0.0302826 17.3407 0.0110118 1.0898C0.0110118 0.306526 0.206472 0.0192351 1.05438 0.0246557C6.23546 0.0598894 11.4165 0.0788614 16.5948 0.0111043C17.696 -0.00244716 17.7456 0.610077 17.8474 1.31746C18.7091 7.21233 19.5625 13.1099 20.4242 19.0075C20.5316 19.7447 20.6775 20.4765 21.0601 21.2028C21.6851 16.3189 22.31 11.4322 22.9349 6.54831C23.1689 4.71345 23.4139 2.8813 23.6342 1.04372C23.7223 0.314656 24.0168 0.0138146 24.84 0.0219454C30.0733 0.0625997 35.3067 0.0625997 40.5373 0.0219454C41.4183 0.0165248 41.5614 0.366152 41.5559 1.11419C41.5284 5.07392 41.5202 9.03365 41.5614 12.9934C41.5697 13.8715 41.2256 14.1209 40.4024 14.2347C38.2744 14.5355 36.2069 15.0532 34.379 16.2566C32.0362 17.7987 31.9839 19.8097 34.2771 21.444C36.0115 22.6799 38.0349 23.1732 40.0831 23.6231C40.5759 23.7315 41.611 23.5012 41.4073 24.485C41.1953 25.5013 41.8918 26.9595 40.4768 27.4609C38.5414 28.1466 37.9771 29.3445 38.2249 31.258C38.4341 32.8842 38.4644 34.5456 38.4065 36.1853C38.357 37.5702 38.9819 38.3644 40.2565 38.5947C41.4073 38.8007 41.5835 39.4024 41.5614 40.4133C41.5009 43.4976 41.5036 46.5847 41.5614 49.669C41.5807 50.6474 41.344 51.0105 40.2731 50.9862C37.1347 50.9157 33.9936 50.9103 30.8552 50.9862C29.732 51.0133 29.4759 50.6609 29.4787 49.6039C29.509 40.4486 29.4787 31.2959 29.4677 22.1406C29.4677 21.8018 29.4677 21.4603 29.2695 21.0971C28.8455 24.1299 28.4078 27.1628 27.9976 30.1983C27.1249 36.665 26.2495 43.1317 25.4153 49.6012C25.2777 50.6636 24.8702 51.0593 23.7223 50.9916C21.8447 50.8777 19.9507 50.8696 18.0759 50.9916C16.8949 51.0702 16.5425 50.5986 16.3966 49.5795C15.4606 42.9664 14.4916 36.3587 13.5391 29.7484C13.2087 27.4636 12.9004 25.1761 12.5838 22.8913C12.6306 22.3032 12.4571 21.7964 11.9203 21.1378C11.9616 21.959 11.9891 22.5146 12.0167 23.0702L12.0194 23.0729Z" fill="white"></path><path d="M71.2327 23.4177C71.4144 23.5803 71.5053 23.7321 71.6292 23.7674C76.3698 25.071 77.8701 28.5673 77.9169 32.9335C77.9555 36.4732 78.1977 40.0236 77.6196 43.5551C76.8736 48.1003 74.5804 50.2848 69.9609 50.6507C62.4893 51.2442 55.004 50.8458 47.527 50.9786C46.6461 50.9949 46.4974 50.6263 46.5057 49.881C46.5359 46.6422 46.5332 43.4007 46.5057 40.1619C46.5001 39.4491 46.6461 39.0805 47.4692 38.907C49.2036 38.5438 50.4892 37.8066 50.3956 35.5706C50.3323 34.0908 50.5608 32.5975 50.6791 31.1095C50.8443 29.0253 50.514 28.2556 48.4658 27.6268C46.5772 27.0468 47.5931 25.7296 47.4306 24.7268C47.2545 23.64 48.2097 23.9056 48.8126 23.7755C51.0068 23.3039 53.2311 22.9001 55.0784 21.5178C57.2037 19.9269 57.1816 18.0243 54.9903 16.4984C52.9311 15.0646 50.5525 14.4548 48.0914 14.2C46.8938 14.0781 46.4396 13.7312 46.4754 12.4356C46.5827 8.68461 46.5222 4.92816 46.5057 1.17441C46.5029 0.496841 46.5057 -0.00185161 47.4582 0.022541C53.4706 0.166186 59.4941 -0.259329 65.4983 0.293569C73.0002 0.981982 76.3478 4.37526 76.9204 11.8313C77.0415 13.4168 77.0332 15.0213 76.9314 16.6095C76.7359 19.6748 75.4971 22.0572 72.2266 22.9624C71.9017 23.0518 71.6072 23.2416 71.2272 23.415L71.2327 23.4177ZM60.3145 35.0963C60.3145 36.7415 60.3145 38.3866 60.3145 40.0345C60.3145 42.1241 60.8651 42.4358 62.8638 41.5604C63.9291 41.0942 64.0585 40.17 64.0778 39.2512C64.1301 36.5274 64.1549 33.8008 64.0943 31.077C64.0448 28.8654 63.6786 28.5808 61.479 28.2312C60.5678 28.0875 60.2732 28.3179 60.3007 29.234C60.3586 31.1854 60.3173 33.1422 60.3173 35.0963H60.3145ZM64.1494 14.7936C64.1494 14.1567 64.1549 13.7474 64.1494 13.3382C64.1356 12.3137 64.1494 11.2865 63.7392 10.3108C63.1969 9.02611 61.9663 9.0776 60.9339 9.13452C59.7997 9.19686 60.3558 10.2457 60.342 10.8366C60.2787 13.4493 60.3063 16.0674 60.3255 18.6829C60.3255 19.0596 60.1301 19.5258 60.5871 19.7968C61.5836 20.3849 63.5905 19.5285 63.8851 18.3956C64.2127 17.1353 64.0751 15.8452 64.1521 14.7936H64.1494Z" fill="white"></path><path d="M39.9369 31.5135C39.8488 30.6272 40.0938 30.0391 41.0491 29.7816C42.0787 29.5024 42.5137 28.8194 42.4393 27.7163C42.3512 26.3856 42.3815 25.0413 42.4338 23.7078C42.4641 22.9354 42.2136 22.6291 41.4015 22.5478C39.5625 22.3608 37.8474 21.7158 36.2534 20.8105C34.464 19.7942 34.3759 18.168 36.2204 17.2655C41.6134 14.6257 47.1276 14.3465 52.6446 16.9538C53.4897 17.3522 54.3844 17.9322 54.2936 19.0028C54.2055 20.0381 53.4704 20.6886 52.4876 21.1412C50.9157 21.8675 49.319 22.4774 47.5736 22.5831C46.7918 22.6319 46.4669 22.9002 46.5082 23.7105C46.5688 24.941 46.6238 26.1877 46.4972 27.4101C46.3706 28.6514 46.9349 29.4021 48.0031 29.7192C49.1951 30.0716 49.3603 30.8034 49.2419 31.8387C49.1208 32.9093 48.9859 33.9988 49.0492 35.0666C49.14 36.5844 48.5041 37.411 47.001 37.6062C45.3437 37.823 43.6892 37.8745 42.0264 37.5574C40.6664 37.2972 40.0387 36.5898 40.1516 35.2049C40.2012 34.5978 39.9975 32.1233 39.9396 31.5135H39.9369Z" fill="white"></path><path d="M12.0194 23.0729C12.0525 24.8671 12.1185 26.6613 12.1158 28.4556C12.1158 35.5023 12.0745 42.5463 12.102 49.5931C12.1075 50.6392 11.8515 51.016 10.72 50.9889C7.58165 50.913 4.44053 50.9401 1.30215 50.978C0.443227 50.9889 0 50.8967 0 49.8451C0.0357885 33.5942 0.0302826 17.3407 0.0110118 1.0898C0.0110118 0.306526 0.206472 0.0192351 1.05438 0.0246557C6.23546 0.0598894 11.4165 0.0788614 16.5948 0.0111043C17.696 -0.00244716 17.7456 0.610077 17.8474 1.31746C18.7091 7.21233 19.5625 13.1099 20.4242 19.0075C20.5316 19.7447 20.6775 20.4765 21.0601 21.2028C21.6851 16.3189 22.31 11.4322 22.9349 6.54831C23.1689 4.71345 23.4139 2.8813 23.6342 1.04372C23.7223 0.314656 24.0168 0.0138146 24.84 0.0219454C30.0733 0.0625997 35.3067 0.0625997 40.5373 0.0219454C41.4183 0.0165248 41.5614 0.366152 41.5559 1.11419C41.5284 5.07392 41.5202 9.03365 41.5614 12.9934C41.5697 13.8715 41.2256 14.1209 40.4024 14.2347C38.2744 14.5355 36.2069 15.0532 34.379 16.2566C32.0362 17.7987 31.9839 19.8097 34.2771 21.444C36.0115 22.6799 38.0349 23.1732 40.0831 23.6231C40.5759 23.7315 41.611 23.5012 41.4073 24.485C41.1953 25.5013 41.8918 26.9595 40.4768 27.4609C38.5414 28.1466 37.9771 29.3445 38.2249 31.258C38.4341 32.8842 38.4644 34.5456 38.4065 36.1853C38.357 37.5702 38.9819 38.3644 40.2565 38.5947C41.4073 38.8007 41.5835 39.4024 41.5614 40.4133C41.5009 43.4976 41.5036 46.5847 41.5614 49.669C41.5807 50.6474 41.344 51.0105 40.2731 50.9862C37.1347 50.9157 33.9936 50.9103 30.8552 50.9862C29.732 51.0133 29.4759 50.6609 29.4787 49.6039C29.509 40.4486 29.4787 31.2959 29.4677 22.1406C29.4677 21.8018 29.4677 21.4603 29.2695 21.0971C28.8455 24.1299 28.4078 27.1628 27.9976 30.1983C27.1249 36.665 26.2495 43.1317 25.4153 49.6012C25.2777 50.6636 24.8702 51.0593 23.7223 50.9916C21.8447 50.8777 19.9507 50.8696 18.0759 50.9916C16.8949 51.0702 16.5425 50.5986 16.3966 49.5795C15.4606 42.9664 14.4916 36.3587 13.5391 29.7484C13.2087 27.4636 12.9004 25.1761 12.5838 22.8913C12.6306 22.3032 12.4571 21.7964 11.9203 21.1378C11.9616 21.959 11.9891 22.5146 12.0167 23.0702L12.0194 23.0729Z" stroke="white" stroke-width="6" stroke-linejoin="round" mask="url(#path-1-inside-1_147_309)"></path><path d="M71.2327 23.4177C71.4144 23.5803 71.5053 23.7321 71.6292 23.7674C76.3698 25.071 77.8701 28.5673 77.9169 32.9335C77.9555 36.4732 78.1977 40.0236 77.6196 43.5551C76.8736 48.1003 74.5804 50.2848 69.9609 50.6507C62.4893 51.2442 55.004 50.8458 47.527 50.9786C46.6461 50.9949 46.4974 50.6263 46.5057 49.881C46.5359 46.6422 46.5332 43.4007 46.5057 40.1619C46.5001 39.4491 46.6461 39.0805 47.4692 38.907C49.2036 38.5438 50.4892 37.8066 50.3956 35.5706C50.3323 34.0908 50.5608 32.5975 50.6791 31.1095C50.8443 29.0253 50.514 28.2556 48.4658 27.6268C46.5772 27.0468 47.5931 25.7296 47.4306 24.7268C47.2545 23.64 48.2097 23.9056 48.8126 23.7755C51.0068 23.3039 53.2311 22.9001 55.0784 21.5178C57.2037 19.9269 57.1816 18.0243 54.9903 16.4984C52.9311 15.0646 50.5525 14.4548 48.0914 14.2C46.8938 14.0781 46.4396 13.7312 46.4754 12.4356C46.5827 8.68461 46.5222 4.92816 46.5057 1.17441C46.5029 0.496841 46.5057 -0.00185161 47.4582 0.022541C53.4706 0.166186 59.4941 -0.259329 65.4983 0.293569C73.0002 0.981982 76.3478 4.37526 76.9204 11.8313C77.0415 13.4168 77.0332 15.0213 76.9314 16.6095C76.7359 19.6748 75.4971 22.0572 72.2266 22.9624C71.9017 23.0518 71.6072 23.2416 71.2272 23.415L71.2327 23.4177ZM60.3145 35.0963C60.3145 36.7415 60.3145 38.3866 60.3145 40.0345C60.3145 42.1241 60.8651 42.4358 62.8638 41.5604C63.9291 41.0942 64.0585 40.17 64.0778 39.2512C64.1301 36.5274 64.1549 33.8008 64.0943 31.077C64.0448 28.8654 63.6786 28.5808 61.479 28.2312C60.5678 28.0875 60.2732 28.3179 60.3007 29.234C60.3586 31.1854 60.3173 33.1422 60.3173 35.0963H60.3145ZM64.1494 14.7936C64.1494 14.1567 64.1549 13.7474 64.1494 13.3382C64.1356 12.3137 64.1494 11.2865 63.7392 10.3108C63.1969 9.02611 61.9663 9.0776 60.9339 9.13452C59.7997 9.19686 60.3558 10.2457 60.342 10.8366C60.2787 13.4493 60.3063 16.0674 60.3255 18.6829C60.3255 19.0596 60.1301 19.5258 60.5871 19.7968C61.5836 20.3849 63.5905 19.5285 63.8851 18.3956C64.2127 17.1353 64.0751 15.8452 64.1521 14.7936H64.1494Z" stroke="white" stroke-width="6" stroke-linejoin="round" mask="url(#path-1-inside-1_147_309)"></path><path d="M39.9369 31.5135C39.8488 30.6272 40.0938 30.0391 41.0491 29.7816C42.0787 29.5024 42.5137 28.8194 42.4393 27.7163C42.3512 26.3856 42.3815 25.0413 42.4338 23.7078C42.4641 22.9354 42.2136 22.6291 41.4015 22.5478C39.5625 22.3608 37.8474 21.7158 36.2534 20.8105C34.464 19.7942 34.3759 18.168 36.2204 17.2655C41.6134 14.6257 47.1276 14.3465 52.6446 16.9538C53.4897 17.3522 54.3844 17.9322 54.2936 19.0028C54.2055 20.0381 53.4704 20.6886 52.4876 21.1412C50.9157 21.8675 49.319 22.4774 47.5736 22.5831C46.7918 22.6319 46.4669 22.9002 46.5082 23.7105C46.5688 24.941 46.6238 26.1877 46.4972 27.4101C46.3706 28.6514 46.9349 29.4021 48.0031 29.7192C49.1951 30.0716 49.3603 30.8034 49.2419 31.8387C49.1208 32.9093 48.9859 33.9988 49.0492 35.0666C49.14 36.5844 48.5041 37.411 47.001 37.6062C45.3437 37.823 43.6892 37.8745 42.0264 37.5574C40.6664 37.2972 40.0387 36.5898 40.1516 35.2049C40.2012 34.5978 39.9975 32.1233 39.9396 31.5135H39.9369Z" stroke="white" stroke-width="6" stroke-linejoin="round" mask="url(#path-1-inside-1_147_309)"></path></svg>